<?xml version="1.0" standalone="no"?>
<!DOCTYPE svg PUBLIC "-//W3C//DTD SVG 20010904//EN"
 "http://www.w3.org/TR/2001/REC-SVG-20010904/DTD/svg10.dtd">
<svg version="1.0" xmlns="http://www.w3.org/2000/svg"
 width="700.000000pt" height="700.000000pt" viewBox="0 0 700.000000 700.000000"
 preserveAspectRatio="xMidYMid meet">
<metadata>
Created by potrace 1.14, written by Peter Selinger 2001-2017
</metadata>
<g transform="translate(0.000000,700.000000) scale(0.100000,-0.100000)"
fill="#000000" stroke="none">
<path d="M1530 5153 c-32 -3 -92 -12 -190 -28 -118 -20 -345 -102 -466 -170
-60 -34 -222 -141 -234 -154 -3 -3 -34 -31 -70 -61 -276 -233 -467 -574 -541
-965 -42 -226 -32 -524 24 -725 89 -316 271 -588 556 -833 207 -178 378 -268
621 -327 160 -38 257 -49 435 -45 313 5 564 60 790 172 202 100 399 276 780
697 6 6 64 72 129 146 65 74 122 139 126 143 4 4 58 -52 121 -125 393 -459
695 -736 935 -859 324 -165 807 -222 1170 -139 196 46 415 142 589 261 319
217 611 681 670 1064 3 22 10 69 15 105 16 105 5 379 -20 500 -25 123 -85 308
-134 415 -109 236 -305 472 -509 613 -162 112 -478 254 -617 277 -19 3 -42 8
-50 10 -8 3 -62 11 -120 19 -422 58 -892 -50 -1184 -271 -218 -165 -522 -470
-778 -780 l-76 -92 -128 147 c-242 278 -449 485 -649 652 -49 41 -92 77 -95
80 -3 3 -30 22 -60 42 -151 98 -347 170 -585 215 -73 14 -364 24 -455 16z
m245 -627 c86 -7 251 -41 316 -65 109 -41 274 -167 434 -331 55 -56 143 -146
196 -199 112 -111 210 -222 331 -372 l45 -55 -39 -50 c-37 -46 -68 -83 -162
-194 -21 -25 -48 -56 -59 -70 -49 -58 -199 -220 -268 -290 -231 -232 -358
-318 -553 -375 -117 -33 -179 -40 -366 -39 -212 1 -308 21 -455 96 -96 49
-171 104 -254 186 -242 240 -351 581 -291 911 23 121 40 174 95 282 156 311
467 531 795 565 36 3 66 8 68 9 3 2 43 0 167 -9z m3743 -8 c324 -66 580 -253
734 -538 43 -79 83 -195 103 -292 14 -73 15 -318 1 -383 -81 -380 -361 -690
-708 -785 -79 -21 -87 -23 -154 -35 -133 -24 -377 -6 -535 39 -162 47 -326
169 -579 431 -153 158 -470 530 -470 551 0 4 178 220 215 260 5 6 35 40 65 75
293 337 538 551 697 609 71 25 234 62 328 73 62 7 258 4 303 -5z"/>
</g>
</svg>
