<svg xmlns="http://www.w3.org/2000/svg" width="740" height="20" viewBox="0 0 740 20"><defs><clipPath id="bgnga"><path fill="#fff" d="M10 10h720"/></clipPath></defs><g><g><g opacity=".3"><path fill="#ceced3" d="M730 2a8 8 0 1 1 0 16 8 8 0 0 1 0-16z"/></g><g><path fill="#ceced3" d="M730 5a5 5 0 1 1 0 10 5 5 0 0 1 0-10z"/></g></g><g><g opacity=".3"><path fill="#ceced3" d="M490 2a8 8 0 1 1 0 16 8 8 0 0 1 0-16z"/></g><g><path fill="#ceced3" d="M490 5a5 5 0 1 1 0 10 5 5 0 0 1 0-10z"/></g></g><g><g opacity=".3"><path fill="#ceced3" d="M250 2a8 8 0 1 1 0 16 8 8 0 0 1 0-16z"/></g><g><path fill="#ceced3" d="M250 5a5 5 0 1 1 0 10 5 5 0 0 1 0-10z"/></g></g><g><g opacity=".3"><path fill="#ceced3" d="M10 2a8 8 0 1 1 0 16 8 8 0 0 1 0-16z"/></g><g><path fill="#ceced3" d="M10 5a5 5 0 1 1 0 10 5 5 0 0 1 0-10z"/></g></g><g><path fill="#11100c" d="M10 10h720"/><path fill="none" stroke="#ceced3" stroke-dasharray="0 2" stroke-linecap="round" stroke-miterlimit="20" stroke-width="2" d="M10 10h720" clip-path="url(&quot;#bgnga&quot;)"/></g></g></svg>